<?xml version="1.0" encoding="utf-8"?>
<!-- Generator: Adobe Illustrator 28.0.0, SVG Export Plug-In . SVG Version: 6.00 Build 0)  -->
<svg version="1.1" id="Layer_1" xmlns="http://www.w3.org/2000/svg" xmlns:xlink="http://www.w3.org/1999/xlink" x="0px" y="0px"
	 viewBox="0 0 1080 345.6" style="enable-background:new 0 0 1080 345.6;" xml:space="preserve">
<style type="text/css">
	.st0{fill:#FF4D00;}
</style>
<g>
	<path d="M282.54,122.39v14.17c5.83-5.83,12.12-10.2,18.9-13.11c6.77-2.91,14.01-4.37,21.73-4.37c16.77,0,31.02,6.34,42.75,19.01
		c11.73,12.68,17.6,28.93,17.6,48.78s-6.06,35.13-18.19,48.01c-12.12,12.87-26.49,19.31-43.11,19.31c-7.4,0-14.29-1.32-20.67-3.96
		s-12.72-6.95-19.01-12.93v60.58h-32V122.39H282.54z M316.43,148.84c-10.16,0-18.58,3.47-25.27,10.39
		c-6.69,6.93-10.04,15.98-10.04,27.16s3.35,20.65,10.04,27.69c6.69,7.05,15.12,10.57,25.27,10.57s18.13-3.58,24.86-10.75
		c6.73-7.16,10.1-16.3,10.1-27.4s-3.31-20.06-9.92-27.1c-6.61-7.05-14.96-10.57-25.04-10.57L316.43,148.84z"/>
	<path d="M400.3,75.03h32.24v47.36h19.13v27.75h-19.13v100.74H400.3V150.14h-16.53v-27.75h16.53V75.03L400.3,75.03z"/>
	<path d="M479.52,69.48c5.65,0,10.5,2.05,14.54,6.14c4.04,4.09,6.07,9.05,6.07,14.88s-2,10.65-6.01,14.7
		c-4,4.06-8.79,6.08-14.37,6.08s-10.62-2.07-14.66-6.2s-6.06-9.15-6.06-15.06s2-10.51,6-14.53S473.86,69.47,479.52,69.48
		L479.52,69.48z M463.4,122.39h32.24v128.49H463.4V122.39z"/>
	<path d="M507.44,122.39h37.44l25.4,35.02l25.27-35.02h36.81l-43.62,60.47l49.33,68.02h-37.44l-30.56-42.15l-30.41,42.15h-36.82
		l48.77-67.59l-44.16-60.9L507.44,122.39z"/>
	<path class="st0" d="M645.95,77.16h35.07c18.97,0,32.65,1.75,41.04,5.26c8.39,3.5,15,9.17,19.84,17.01s7.26,17.22,7.26,28.17
		c0,12.13-3.17,22.2-9.51,30.23s-14.94,13.62-25.8,16.77c-6.38,1.81-17.99,2.72-34.84,2.72v73.57h-33.07V77.16H645.95z
		 M679.02,145.07h10.51c8.27,0,14.01-0.59,17.24-1.78c3.23-1.18,5.77-3.14,7.62-5.86s2.77-6.02,2.77-9.89
		c0-6.72-2.6-11.61-7.79-14.69c-3.78-2.29-10.79-3.44-21.02-3.44h-9.33V145.07L679.02,145.07z"/>
	<path class="st0" d="M845.08,122.39h32.24v128.49h-32.24V237.3c-6.29,5.98-12.6,10.3-18.93,12.93c-6.33,2.64-13.19,3.96-20.58,3.96
		c-16.59,0-30.94-6.44-43.06-19.31c-12.11-12.87-18.16-28.88-18.16-48.01s5.86-36.1,17.58-48.77c11.72-12.68,25.95-19.01,42.7-19.01
		c7.71,0,14.94,1.46,21.7,4.37s13.01,7.28,18.76,13.11V122.4L845.08,122.39z M811.19,148.84c-9.97,0-18.25,3.52-24.84,10.57
		s-9.89,16.08-9.89,27.1s3.35,20.24,10.06,27.4c6.71,7.17,14.97,10.75,24.78,10.75s18.52-3.52,25.19-10.57
		c6.67-7.04,10-16.28,10-27.69s-3.34-20.23-10-27.16C829.82,152.31,821.39,148.85,811.19,148.84L811.19,148.84z"/>
	<path class="st0" d="M885.67,122.39h32.95l33.37,80.62l36.83-80.62h33.04l-80.47,175.49h-33.3l26.42-56.59
		C934.51,241.29,885.67,122.39,885.67,122.39z"/>
	<g>
		<path d="M205.64,164.61c-0.06,16.49-5.58,30.36-16.55,41.63c-11.03,11.35-24.38,17.01-40.07,17.01
			c-13.87,0-26.17-4.38-36.88-13.11c-13.8-11.18-20.69-26.37-20.69-45.59c0-17.24,5.48-31.45,16.43-42.63
			c10.96-11.17,24.47-16.76,40.56-16.76V72.8c-16.1,0.06-31.13,4.14-45.09,12.22c-14.06,8.14-25.11,19.19-33.15,33.13
			c-8.03,13.94-12.05,29.21-12.05,45.82c0,24.8,8.62,46.21,25.88,64.24c17.25,18.03,38.91,27.05,64.99,27.05s46.06-8.78,63.51-26.33
			c17.44-17.55,26.17-38.99,26.18-64.31h-33.08L205.64,164.61z"/>
		<path d="M164.66,144.39l14.94-14.97c0.75-0.75,1.96-0.75,2.72,0l0.01,0.01c0.75,0.75,0.75,1.96,0,2.72l-14.94,14.97
			c-0.75,0.75-1.96,0.75-2.72,0l-0.01-0.01C163.91,146.36,163.91,145.14,164.66,144.39z"/>
		<path class="st0" d="M163.42,122.23l14.94-14.97c0.75-0.75,1.96-0.75,2.72,0l0.01,0.01c0.75,0.75,0.75,1.96,0,2.72l-14.94,14.97
			c-0.75,0.75-1.96,0.75-2.72,0l-0.01-0.01C162.67,124.2,162.67,122.98,163.42,122.23z"/>
		<polygon class="st0" points="162.22,93.39 236.16,75.16 218.74,150.68 204.45,106.7 		"/>
		<path class="st0" d="M186.82,145.6l14.94-14.97c0.75-0.75,1.96-0.75,2.72,0l0.01,0.01c0.75,0.75,0.75,1.96,0,2.72l-14.94,14.97
			c-0.75,0.75-1.96,0.75-2.72,0l-0.01-0.01C186.07,147.57,186.07,146.35,186.82,145.6z"/>
	</g>
</g>
</svg>
